<svg width="15" height="14" viewBox="0 0 15 14" fill="none" xmlns="http://www.w3.org/2000/svg">
<path fill-rule="evenodd" clip-rule="evenodd" d="M6.66273 1.1416C6.98968 1.46855 7.25255 1.84761 7.44325 2.25926C7.63579 1.85646 7.89662 1.48526 8.21833 1.16355C8.96334 0.418542 9.97379 0 11.0274 0C12.081 0 13.0914 0.418542 13.8364 1.16355C14.5079 1.83503 14.9142 2.72214 14.9879 3.66212L14.9909 3.66211L14.991 3.70518C14.997 3.79392 15 3.88311 15 3.97261H14.9918L14.9929 4.37161C14.8861 5.57424 14.5155 6.75808 13.8935 7.87628C13.1422 9.22696 12.039 10.4554 10.6467 11.4915C9.69984 12.1961 8.63199 12.8023 7.47278 13.2954C6.34927 12.8165 5.31214 12.2308 4.38867 11.5517C2.99051 10.5236 1.88028 9.30139 1.12137 7.955C0.493074 6.84035 0.115755 5.65862 0.0021322 4.45662L0 3.70462L0.0137908 3.70458C0.061538 2.74115 0.465294 1.82691 1.15061 1.1416C1.88156 0.410645 2.87295 0 3.90667 0C4.94039 0 5.93178 0.410645 6.66273 1.1416Z" fill="#9D702B"/>
</svg>
