<svg width="15" height="14" viewBox="0 0 15 14" fill="none" xmlns="http://www.w3.org/2000/svg">
<mask id="path-1-inside-1_122_25" fill="white">
<path fill-rule="evenodd" clip-rule="evenodd" d="M6.66273 1.1416C6.98968 1.46855 7.25255 1.84761 7.44325 2.25926C7.63579 1.85646 7.89662 1.48526 8.21833 1.16355C8.96334 0.418542 9.97379 0 11.0274 0C12.081 0 13.0914 0.418542 13.8364 1.16355C14.5079 1.83503 14.9142 2.72214 14.9879 3.66212L14.9909 3.66211L14.991 3.70518C14.997 3.79392 15 3.88311 15 3.97261H14.9918L14.9929 4.37161C14.8861 5.57424 14.5155 6.75808 13.8935 7.87628C13.1422 9.22696 12.039 10.4554 10.6467 11.4915C9.69984 12.1961 8.63199 12.8023 7.47278 13.2954C6.34927 12.8165 5.31214 12.2308 4.38867 11.5517C2.99051 10.5236 1.88028 9.30139 1.12137 7.955C0.493074 6.84035 0.115755 5.65862 0.0021322 4.45662L0 3.70462L0.0137908 3.70458C0.061538 2.74115 0.465294 1.82691 1.15061 1.1416C1.88156 0.410645 2.87295 0 3.90667 0C4.94039 0 5.93178 0.410645 6.66273 1.1416Z"/>
</mask>
<path d="M7.44325 2.25926L6.53588 2.6796L7.42906 4.60764L8.34547 2.69053L7.44325 2.25926ZM6.66273 1.1416L5.95562 1.8487L5.95562 1.8487L6.66273 1.1416ZM8.21833 1.16355L7.51122 0.456444L7.51122 0.456444L8.21833 1.16355ZM13.8364 1.16355L13.1293 1.87066L13.1293 1.87066L13.8364 1.16355ZM14.9879 3.66212L13.9909 3.74024L14.0634 4.66476L14.9907 4.66212L14.9879 3.66212ZM14.9909 3.66211L15.9909 3.65928L15.988 2.65927L14.988 2.66212L14.9909 3.66211ZM14.991 3.70518L13.991 3.70801L13.9911 3.74027L13.9933 3.77246L14.991 3.70518ZM15 3.97261V4.97261H16V3.97261H15ZM14.9918 3.97261V2.97261H13.9889L13.9918 3.97545L14.9918 3.97261ZM14.9929 4.37161L15.989 4.46007L15.993 4.41452L15.9929 4.36878L14.9929 4.37161ZM13.8935 7.87628L14.7674 8.36237L14.7674 8.36237L13.8935 7.87628ZM10.6467 11.4915L11.2436 12.2937L11.2436 12.2937L10.6467 11.4915ZM7.47278 13.2954L7.08068 14.2153L7.47239 14.3823L7.86421 14.2156L7.47278 13.2954ZM4.38867 11.5517L3.79623 12.3574L3.79623 12.3574L4.38867 11.5517ZM1.12137 7.955L0.250224 8.44603L0.250224 8.44603L1.12137 7.955ZM0.0021322 4.45662L-0.997864 4.45946L-0.997734 4.50519L-0.99343 4.55073L0.0021322 4.45662ZM0 3.70462L-0.00283525 2.70462L-1.00283 2.70746L-0.999996 3.70745L0 3.70462ZM0.0137908 3.70458L0.0166261 4.70457L0.965592 4.70188L1.01257 3.75408L0.0137908 3.70458ZM1.15061 1.1416L1.85771 1.8487L1.85771 1.8487L1.15061 1.1416ZM8.35061 1.83891C8.111 1.32167 7.78066 0.845311 7.36983 0.434491L5.95562 1.8487C6.19871 2.09179 6.3941 2.37355 6.53588 2.6796L8.35061 1.83891ZM7.51122 0.456444C7.10855 0.85911 6.78203 1.3238 6.54102 1.82798L8.34547 2.69053C8.48955 2.38912 8.68469 2.1114 8.92543 1.87066L7.51122 0.456444ZM11.0274 -1C9.70857 -1 8.44377 -0.476102 7.51122 0.456444L8.92543 1.87066C9.48291 1.31318 10.239 1 11.0274 1V-1ZM14.5436 0.456445C13.611 -0.476101 12.3462 -1 11.0274 -1V1C11.8158 1 12.5719 1.31319 13.1293 1.87066L14.5436 0.456445ZM15.9848 3.584C15.8926 2.40737 15.3841 1.29697 14.5436 0.456444L13.1293 1.87066C13.6318 2.37309 13.9358 3.03691 13.9909 3.74024L15.9848 3.584ZM14.988 2.66212L14.985 2.66213L14.9907 4.66212L14.9937 4.66211L14.988 2.66212ZM15.991 3.70234L15.9909 3.65928L13.9909 3.66495L13.991 3.70801L15.991 3.70234ZM16 3.97261C16 3.86061 15.9962 3.74898 15.9887 3.63789L13.9933 3.77246C13.9977 3.83886 14 3.90561 14 3.97261H16ZM14.9918 4.97261H15V2.97261H14.9918V4.97261ZM15.9929 4.36878L15.9917 3.96978L13.9918 3.97545L13.9929 4.37445L15.9929 4.36878ZM14.7674 8.36237C15.4537 7.12858 15.8691 5.81002 15.989 4.46007L13.9968 4.28315C13.9031 5.33846 13.5773 6.38759 13.0196 7.3902L14.7674 8.36237ZM11.2436 12.2937C12.7356 11.1835 13.9393 9.85126 14.7674 8.36237L13.0196 7.3902C12.3452 8.60266 11.3423 9.72731 10.0497 10.6892L11.2436 12.2937ZM7.86421 14.2156C9.09101 13.6937 10.2287 13.049 11.2436 12.2937L10.0497 10.6892C9.17097 11.3431 8.17296 11.9108 7.08135 12.3752L7.86421 14.2156ZM3.79623 12.3574C4.78616 13.0853 5.89131 13.7084 7.08068 14.2153L7.86488 12.3755C6.80724 11.9247 5.83811 11.3763 4.9811 10.7461L3.79623 12.3574ZM0.250224 8.44603C1.0868 9.9302 2.29801 11.2556 3.79623 12.3574L4.9811 10.7461C3.68302 9.79154 2.67376 8.67258 1.99251 7.46397L0.250224 8.44603ZM-0.99343 4.55073C-0.865889 5.89997 -0.443016 7.21615 0.250224 8.44603L1.99251 7.46397C1.42916 6.46454 1.0974 5.41727 0.997694 4.36251L-0.99343 4.55073ZM-0.999996 3.70745L-0.997864 4.45946L1.00213 4.45379L0.999996 3.70178L-0.999996 3.70745ZM0.0109556 2.70458L-0.00283525 2.70462L0.00283525 4.70461L0.0166261 4.70457L0.0109556 2.70458ZM0.443501 0.43449C-0.41765 1.29564 -0.924984 2.44443 -0.984983 3.65508L1.01257 3.75408C1.04806 3.03787 1.34824 2.35818 1.85771 1.8487L0.443501 0.43449ZM3.90667 -1C2.60773 -1 1.36199 -0.483999 0.443501 0.43449L1.85771 1.8487C2.40113 1.30529 3.13816 1 3.90667 1V-1ZM7.36983 0.434491C6.45135 -0.483998 5.20561 -1 3.90667 -1V1C4.67517 1 5.4122 1.30529 5.95562 1.8487L7.36983 0.434491Z" fill="#CCBA9E" mask="url(#path-1-inside-1_122_25)"/>
</svg>
